<?xml version="1.0" encoding="UTF-8" standalone="no"?><svg xmlns="http://www.w3.org/2000/svg" xmlns:xlink="http://www.w3.org/1999/xlink" contentScriptType="application/ecmascript" contentStyleType="text/css" height="756px" preserveAspectRatio="none" style="width:1328px;height:756px;background:#FFFFFF;" version="1.1" viewBox="0 0 1328 756" width="1328px" zoomAndPan="magnify"><defs><filter height="300%" id="fg2x28zoiqclp" width="300%" x="-1" y="-1"><feGaussianBlur result="blurOut" stdDeviation="2.0"/><feColorMatrix in="blurOut" result="blurOut2" type="matrix" values="0 0 0 0 0 0 0 0 0 0 0 0 0 0 0 0 0 0 .4 0"/><feOffset dx="4.0" dy="4.0" in="blurOut2" result="blurOut3"/><feBlend in="SourceGraphic" in2="blurOut3" mode="normal"/></filter></defs><g><!--MD5=[d5c1c9ce83ade5a935aa847b812afe6f]
cluster Contracts--><polygon fill="#FFFFFF" filter="url(#fg2x28zoiqclp)" points="735,144,810,144,817,166.4883,1197,166.4883,1197,256,735,256,735,144" style="stroke:#000000;stroke-width:1.5;"/><line style="stroke:#000000;stroke-width:1.5;" x1="735" x2="817" y1="166.4883" y2="166.4883"/><text fill="#000000" font-family="sans-serif" font-size="14" font-weight="bold" lengthAdjust="spacing" textLength="69" x="739" y="159.5352">Contracts</text><!--MD5=[7fcc49a9ed1e7330e503c8d2178182dd]
cluster EventsAPI--><polygon fill="#FFFFFF" filter="url(#fg2x28zoiqclp)" points="216,309.5,293,309.5,300,331.9883,1311,331.9883,1311,579.5,216,579.5,216,309.5" style="stroke:#000000;stroke-width:1.5;"/><line style="stroke:#000000;stroke-width:1.5;" x1="216" x2="300" y1="331.9883" y2="331.9883"/><text fill="#000000" font-family="sans-serif" font-size="14" font-weight="bold" lengthAdjust="spacing" textLength="71" x="220" y="325.0352">EventsAPI</text><!--MD5=[4701979c1b70005f60a6464ac7acefb0]
cluster AdminAPI--><polygon fill="#FFFFFF" filter="url(#fg2x28zoiqclp)" points="333,352.5,410,352.5,417,374.9883,1091,374.9883,1091,555.5,333,555.5,333,352.5" style="stroke:#000000;stroke-width:1.5;"/><line style="stroke:#000000;stroke-width:1.5;" x1="333" x2="417" y1="374.9883" y2="374.9883"/><text fill="#000000" font-family="sans-serif" font-size="14" font-weight="bold" lengthAdjust="spacing" textLength="71" x="337" y="368.0352">AdminAPI</text><!--MD5=[6987f1f3fad139a4a62db5e989faf0bb]
cluster PersonAPI--><polygon fill="#FFFFFF" filter="url(#fg2x28zoiqclp)" points="1115,398,1194,398,1201,420.4883,1287,420.4883,1287,510,1115,510,1115,398" style="stroke:#000000;stroke-width:1.5;"/><line style="stroke:#000000;stroke-width:1.5;" x1="1115" x2="1201" y1="420.4883" y2="420.4883"/><text fill="#000000" font-family="sans-serif" font-size="14" font-weight="bold" lengthAdjust="spacing" textLength="73" x="1119" y="413.5352">PersonAPI</text><rect fill="#FEFECE" filter="url(#fg2x28zoiqclp)" height="61.4648" style="stroke:#A80036;stroke-width:1.5;" width="151" x="751.5" y="179"/><text fill="#000000" font-family="sans-serif" font-size="12" lengthAdjust="spacing" textLength="64" x="795" y="192.6016">createJSON</text><line style="stroke:#A80036;stroke-width:1.5;" x1="752.5" x2="901.5" y1="197.1328" y2="197.1328"/><text fill="#000000" font-family="sans-serif" font-size="10" lengthAdjust="spacing" textLength="70" x="757.5" y="210.8008">leader:Person,</text><text fill="#000000" font-family="sans-serif" font-size="10" lengthAdjust="spacing" textLength="139" x="757.5" y="222.5781">participants:Array&lt;Person&gt;,</text><text fill="#000000" font-family="sans-serif" font-size="10" lengthAdjust="spacing" textLength="107" x="757.5" y="234.3555">restaurant:Restaurant</text><rect fill="#FEFECE" filter="url(#fg2x28zoiqclp)" height="49.6875" style="stroke:#A80036;stroke-width:1.5;" width="124" x="938" y="184.5"/><text fill="#000000" font-family="sans-serif" font-size="12" lengthAdjust="spacing" textLength="60" x="970" y="198.1016">shareJSON</text><line style="stroke:#A80036;stroke-width:1.5;" x1="939" x2="1061" y1="202.6328" y2="202.6328"/><text fill="#000000" font-family="sans-serif" font-size="10" lengthAdjust="spacing" textLength="72" x="944" y="216.3008">person: Person</text><text fill="#000000" font-family="sans-serif" font-size="10" lengthAdjust="spacing" textLength="112" x="944" y="228.0781">lunchEvent: LunchEvent</text><rect fill="#FEFECE" filter="url(#fg2x28zoiqclp)" height="37.9102" style="stroke:#A80036;stroke-width:1.5;" width="84" x="1097" y="190.5"/><text fill="#000000" font-family="sans-serif" font-size="12" lengthAdjust="spacing" textLength="49" x="1114.5" y="204.1016">joinJSON</text><line style="stroke:#A80036;stroke-width:1.5;" x1="1098" x2="1180" y1="208.6328" y2="208.6328"/><text fill="#000000" font-family="sans-serif" font-size="10" lengthAdjust="spacing" textLength="72" x="1103" y="222.3008">person: Person</text><!--MD5=[343450bee0794cff4c2e47b8cea00cfc]
class JoinJSON--><rect fill="#FEFECE" filter="url(#fg2x28zoiqclp)" height="48" id="JoinJSON" style="stroke:#A80036;stroke-width:1.5;" width="81" x="232.5" y="439.5"/><ellipse cx="247.5" cy="455.5" fill="#ADD1B2" rx="11" ry="11" style="stroke:#A80036;stroke-width:1.0;"/><path d="M249.9731,461.6431 Q249.3921,461.9419 248.7529,462.0913 Q248.1138,462.2407 247.4082,462.2407 Q244.9014,462.2407 243.5815,460.5889 Q242.2617,458.937 242.2617,455.8159 Q242.2617,452.6865 243.5815,451.0347 Q244.9014,449.3828 247.4082,449.3828 Q248.1138,449.3828 248.7612,449.5322 Q249.4087,449.6816 249.9731,449.9805 L249.9731,452.7031 Q249.3423,452.1221 248.7488,451.8523 Q248.1553,451.5825 247.5244,451.5825 Q246.1797,451.5825 245.4949,452.6492 Q244.8101,453.7158 244.8101,455.8159 Q244.8101,457.9077 245.4949,458.9744 Q246.1797,460.041 247.5244,460.041 Q248.1553,460.041 248.7488,459.7712 Q249.3423,459.5015 249.9731,458.9204 Z " fill="#000000"/><text fill="#000000" font-family="sans-serif" font-size="12" lengthAdjust="spacing" textLength="49" x="261.5" y="460.0352">JoinJSON</text><line style="stroke:#A80036;stroke-width:1.5;" x1="233.5" x2="312.5" y1="471.5" y2="471.5"/><line style="stroke:#A80036;stroke-width:1.5;" x1="233.5" x2="312.5" y1="479.5" y2="479.5"/><!--MD5=[b0867d76b363df764b14d49c1b9eb0a4]
class FridayLunch--><rect codeLine="58" fill="#FEFECE" filter="url(#fg2x28zoiqclp)" height="73.9102" id="FridayLunch" style="stroke:#A80036;stroke-width:1.5;" width="223" x="666.5" y="426.5"/><ellipse cx="739.75" cy="442.5" fill="#ADD1B2" rx="11" ry="11" style="stroke:#A80036;stroke-width:1.0;"/><path d="M742.2231,448.6431 Q741.6421,448.9419 741.0029,449.0913 Q740.3638,449.2407 739.6582,449.2407 Q737.1514,449.2407 735.8315,447.5889 Q734.5117,445.937 734.5117,442.8159 Q734.5117,439.6865 735.8315,438.0347 Q737.1514,436.3828 739.6582,436.3828 Q740.3638,436.3828 741.0112,436.5322 Q741.6587,436.6816 742.2231,436.9805 L742.2231,439.7031 Q741.5923,439.1221 740.9988,438.8523 Q740.4053,438.5825 739.7744,438.5825 Q738.4297,438.5825 737.7449,439.6492 Q737.0601,440.7158 737.0601,442.8159 Q737.0601,444.9077 737.7449,445.9744 Q738.4297,447.041 739.7744,447.041 Q740.4053,447.041 740.9988,446.7712 Q741.5923,446.5015 742.2231,445.9204 Z " fill="#000000"/><text fill="#000000" font-family="sans-serif" font-size="12" lengthAdjust="spacing" textLength="68" x="760.25" y="447.0352">FridayLunch</text><line style="stroke:#A80036;stroke-width:1.5;" x1="667.5" x2="888.5" y1="458.5" y2="458.5"/><line style="stroke:#A80036;stroke-width:1.5;" x1="667.5" x2="888.5" y1="466.5" y2="466.5"/><ellipse cx="677.5" cy="477.5" fill="#84BE84" rx="3" ry="3" style="stroke:#038048;stroke-width:1.0;"/><text fill="#000000" font-family="sans-serif" font-size="11" lengthAdjust="spacing" textLength="197" x="686.5" y="481.1348">createEvent(createJSON): LunchEvent</text><ellipse cx="677.5" cy="490.4551" fill="#84BE84" rx="3" ry="3" style="stroke:#038048;stroke-width:1.0;"/><text fill="#000000" font-family="sans-serif" font-size="11" lengthAdjust="spacing" textLength="64" x="686.5" y="494.0898">open(): void</text><!--MD5=[dd387f837897ecb0f1c53846e62d4227]
class CreateLunchEvent--><rect codeLine="63" fill="#FEFECE" filter="url(#fg2x28zoiqclp)" height="151.6406" id="CreateLunchEvent" style="stroke:#A80036;stroke-width:1.5;" width="282" x="349" y="387.5"/><ellipse cx="434.75" cy="403.5" fill="#ADD1B2" rx="11" ry="11" style="stroke:#A80036;stroke-width:1.0;"/><path d="M437.2231,409.6431 Q436.6421,409.9419 436.0029,410.0913 Q435.3638,410.2407 434.6582,410.2407 Q432.1514,410.2407 430.8315,408.5889 Q429.5117,406.937 429.5117,403.8159 Q429.5117,400.6865 430.8315,399.0347 Q432.1514,397.3828 434.6582,397.3828 Q435.3638,397.3828 436.0112,397.5322 Q436.6587,397.6816 437.2231,397.9805 L437.2231,400.7031 Q436.5923,400.1221 435.9988,399.8523 Q435.4053,399.5825 434.7744,399.5825 Q433.4297,399.5825 432.7449,400.6492 Q432.0601,401.7158 432.0601,403.8159 Q432.0601,405.9077 432.7449,406.9744 Q433.4297,408.041 434.7744,408.041 Q435.4053,408.041 435.9988,407.7712 Q436.5923,407.5015 437.2231,406.9204 Z " fill="#000000"/><text fill="#000000" font-family="sans-serif" font-size="12" lengthAdjust="spacing" textLength="102" x="455.25" y="408.0352">CreateLunchEvent</text><line style="stroke:#A80036;stroke-width:1.5;" x1="350" x2="630" y1="419.5" y2="419.5"/><ellipse cx="360" cy="430.5" rx="3" ry="3" style="stroke:#038048;stroke-width:1.0;fill:none;"/><text fill="#000000" font-family="sans-serif" font-size="11" lengthAdjust="spacing" textLength="94" x="369" y="434.1348">payload *-&gt; JSON</text><rect fill="#F24D5C" height="6" style="stroke:#C82930;stroke-width:1.0;" width="6" x="357" y="440.4551"/><text fill="#000000" font-family="sans-serif" font-size="11" lengthAdjust="spacing" textLength="167" x="369" y="447.0898">validateGroupLeader(): Boolean</text><rect fill="#F24D5C" height="6" style="stroke:#C82930;stroke-width:1.0;" width="6" x="357" y="453.4102"/><text fill="#000000" font-family="sans-serif" font-size="11" lengthAdjust="spacing" textLength="243" x="369" y="460.0449">validateGroupParticipantGroupSize(): Boolean</text><rect fill="#F24D5C" height="6" style="stroke:#C82930;stroke-width:1.0;" width="6" x="357" y="466.3652"/><text fill="#000000" font-family="sans-serif" font-size="11" lengthAdjust="spacing" textLength="244" x="369" y="473">validateGroupParticipantUnitOrigin(): Boolean</text><rect fill="#F24D5C" height="6" style="stroke:#C82930;stroke-width:1.0;" width="6" x="357" y="479.3203"/><text fill="#000000" font-family="sans-serif" font-size="11" lengthAdjust="spacing" textLength="256" x="369" y="485.9551">validateGroupParticipantEventHistory(): Boolean</text><rect fill="#F24D5C" height="6" style="stroke:#C82930;stroke-width:1.0;" width="6" x="357" y="492.2754"/><text fill="#000000" font-family="sans-serif" font-size="11" lengthAdjust="spacing" textLength="152" x="369" y="498.9102">validateGroupSize(): Boolean</text><line style="stroke:#A80036;stroke-width:1.0;" x1="350" x2="630" y1="505.2305" y2="505.2305"/><ellipse cx="360" cy="516.2305" fill="#84BE84" rx="3" ry="3" style="stroke:#038048;stroke-width:1.0;"/><text fill="#000000" font-family="sans-serif" font-size="11" lengthAdjust="spacing" textLength="120" x="369" y="519.8652">groups(): LunchGroup</text><ellipse cx="360" cy="529.1855" fill="#84BE84" rx="3" ry="3" style="stroke:#038048;stroke-width:1.0;"/><text fill="#000000" font-family="sans-serif" font-size="11" lengthAdjust="spacing" textLength="109" x="369" y="532.8203">create(): LunchEvent</text><!--MD5=[45913e166a90507f6661adb58a10609a]
class ShareLunchEvent--><rect codeLine="75" fill="#FEFECE" filter="url(#fg2x28zoiqclp)" height="73.9102" id="ShareLunchEvent" style="stroke:#A80036;stroke-width:1.5;" width="150" x="925" y="426.5"/><ellipse cx="949.9" cy="442.5" fill="#ADD1B2" rx="11" ry="11" style="stroke:#A80036;stroke-width:1.0;"/><path d="M952.3731,448.6431 Q951.7921,448.9419 951.1529,449.0913 Q950.5138,449.2407 949.8082,449.2407 Q947.3014,449.2407 945.9815,447.5889 Q944.6617,445.937 944.6617,442.8159 Q944.6617,439.6865 945.9815,438.0347 Q947.3014,436.3828 949.8082,436.3828 Q950.5138,436.3828 951.1612,436.5322 Q951.8087,436.6816 952.3731,436.9805 L952.3731,439.7031 Q951.7423,439.1221 951.1488,438.8523 Q950.5553,438.5825 949.9244,438.5825 Q948.5797,438.5825 947.8949,439.6492 Q947.2101,440.7158 947.2101,442.8159 Q947.2101,444.9077 947.8949,445.9744 Q948.5797,447.041 949.9244,447.041 Q950.5553,447.041 951.1488,446.7712 Q951.7423,446.5015 952.3731,445.9204 Z " fill="#000000"/><text fill="#000000" font-family="sans-serif" font-size="12" lengthAdjust="spacing" textLength="96" x="966.1" y="447.0352">ShareLunchEvent</text><line style="stroke:#A80036;stroke-width:1.5;" x1="926" x2="1074" y1="458.5" y2="458.5"/><ellipse cx="936" cy="469.5" rx="3" ry="3" style="stroke:#038048;stroke-width:1.0;fill:none;"/><text fill="#000000" font-family="sans-serif" font-size="11" lengthAdjust="spacing" textLength="124" x="945" y="473.1348">payload *-&gt; shareJSON</text><line style="stroke:#A80036;stroke-width:1.5;" x1="926" x2="1074" y1="479.4551" y2="479.4551"/><ellipse cx="936" cy="490.4551" fill="#84BE84" rx="3" ry="3" style="stroke:#038048;stroke-width:1.0;"/><text fill="#000000" font-family="sans-serif" font-size="11" lengthAdjust="spacing" textLength="97" x="945" y="494.0898">notifyPeers(): void</text><!--MD5=[11f2906a90bf4ddf6ce14f0db676bc86]
class JoinLunchEvent--><rect codeLine="82" fill="#FEFECE" filter="url(#fg2x28zoiqclp)" height="60.9551" id="JoinLunchEvent" style="stroke:#A80036;stroke-width:1.5;" width="140" x="1131" y="433"/><ellipse cx="1156.35" cy="449" fill="#ADD1B2" rx="11" ry="11" style="stroke:#A80036;stroke-width:1.0;"/><path d="M1158.8231,455.1431 Q1158.2421,455.4419 1157.6029,455.5913 Q1156.9638,455.7407 1156.2582,455.7407 Q1153.7514,455.7407 1152.4315,454.0889 Q1151.1117,452.437 1151.1117,449.3159 Q1151.1117,446.1865 1152.4315,444.5347 Q1153.7514,442.8828 1156.2582,442.8828 Q1156.9638,442.8828 1157.6112,443.0322 Q1158.2587,443.1816 1158.8231,443.4805 L1158.8231,446.2031 Q1158.1923,445.6221 1157.5988,445.3523 Q1157.0053,445.0825 1156.3744,445.0825 Q1155.0297,445.0825 1154.3449,446.1492 Q1153.6601,447.2158 1153.6601,449.3159 Q1153.6601,451.4077 1154.3449,452.4744 Q1155.0297,453.541 1156.3744,453.541 Q1157.0053,453.541 1157.5988,453.2712 Q1158.1923,453.0015 1158.8231,452.4204 Z " fill="#000000"/><text fill="#000000" font-family="sans-serif" font-size="12" lengthAdjust="spacing" textLength="85" x="1172.65" y="453.5352">JoinLunchEvent</text><line style="stroke:#A80036;stroke-width:1.5;" x1="1132" x2="1270" y1="465" y2="465"/><ellipse cx="1142" cy="476" rx="3" ry="3" style="stroke:#038048;stroke-width:1.0;fill:none;"/><text fill="#000000" font-family="sans-serif" font-size="11" lengthAdjust="spacing" textLength="114" x="1151" y="479.6348">payload *-&gt; joinJSON</text><line style="stroke:#A80036;stroke-width:1.5;" x1="1132" x2="1270" y1="485.9551" y2="485.9551"/><!--MD5=[dfb0845b8492ffe07b1ce50e003034d7]
class Team--><rect codeLine="2" fill="#FEFECE" filter="url(#fg2x28zoiqclp)" height="73.9102" id="Team" style="stroke:#A80036;stroke-width:1.5;" width="167" x="30.5" y="426.5"/><ellipse cx="93.25" cy="442.5" fill="#ADD1B2" rx="11" ry="11" style="stroke:#A80036;stroke-width:1.0;"/><path d="M95.7231,448.6431 Q95.1421,448.9419 94.5029,449.0913 Q93.8638,449.2407 93.1582,449.2407 Q90.6514,449.2407 89.3315,447.5889 Q88.0117,445.937 88.0117,442.8159 Q88.0117,439.6865 89.3315,438.0347 Q90.6514,436.3828 93.1582,436.3828 Q93.8638,436.3828 94.5112,436.5322 Q95.1587,436.6816 95.7231,436.9805 L95.7231,439.7031 Q95.0923,439.1221 94.4988,438.8523 Q93.9053,438.5825 93.2744,438.5825 Q91.9297,438.5825 91.2449,439.6492 Q90.5601,440.7158 90.5601,442.8159 Q90.5601,444.9077 91.2449,445.9744 Q91.9297,447.041 93.2744,447.041 Q93.9053,447.041 94.4988,446.7712 Q95.0923,446.5015 95.7231,445.9204 Z " fill="#000000"/><text fill="#000000" font-family="sans-serif" font-size="12" lengthAdjust="spacing" textLength="33" x="113.75" y="447.0352">Team</text><line style="stroke:#A80036;stroke-width:1.5;" x1="31.5" x2="196.5" y1="458.5" y2="458.5"/><ellipse cx="41.5" cy="469.5" rx="3" ry="3" style="stroke:#038048;stroke-width:1.0;fill:none;"/><text fill="#000000" font-family="sans-serif" font-size="11" lengthAdjust="spacing" textLength="97" x="50.5" y="473.1348">event: LunchEvent</text><ellipse cx="41.5" cy="482.4551" rx="3" ry="3" style="stroke:#038048;stroke-width:1.0;fill:none;"/><text fill="#000000" font-family="sans-serif" font-size="11" lengthAdjust="spacing" textLength="141" x="50.5" y="486.0898">members: Array&lt;Person&gt;</text><line style="stroke:#A80036;stroke-width:1.5;" x1="31.5" x2="196.5" y1="492.4102" y2="492.4102"/><!--MD5=[b658fc24b68b95aedf6f2488b25f860e]
class LunchEvent--><rect codeLine="7" fill="#FEFECE" filter="url(#fg2x28zoiqclp)" height="73.9102" id="LunchEvent" style="stroke:#A80036;stroke-width:1.5;" width="130" x="7" y="172.5"/><ellipse cx="37.3" cy="188.5" fill="#ADD1B2" rx="11" ry="11" style="stroke:#A80036;stroke-width:1.0;"/><path d="M39.7731,194.6431 Q39.1921,194.9419 38.5529,195.0913 Q37.9138,195.2407 37.2082,195.2407 Q34.7014,195.2407 33.3815,193.5889 Q32.0617,191.937 32.0617,188.8159 Q32.0617,185.6865 33.3815,184.0347 Q34.7014,182.3828 37.2082,182.3828 Q37.9138,182.3828 38.5612,182.5322 Q39.2087,182.6816 39.7731,182.9805 L39.7731,185.7031 Q39.1423,185.1221 38.5488,184.8523 Q37.9553,184.5825 37.3244,184.5825 Q35.9797,184.5825 35.2949,185.6492 Q34.6101,186.7158 34.6101,188.8159 Q34.6101,190.9077 35.2949,191.9744 Q35.9797,193.041 37.3244,193.041 Q37.9553,193.041 38.5488,192.7712 Q39.1423,192.5015 39.7731,191.9204 Z " fill="#000000"/><text fill="#000000" font-family="sans-serif" font-size="12" lengthAdjust="spacing" textLength="64" x="54.7" y="193.0352">LunchEvent</text><line style="stroke:#A80036;stroke-width:1.5;" x1="8" x2="136" y1="204.5" y2="204.5"/><ellipse cx="18" cy="215.5" rx="3" ry="3" style="stroke:#038048;stroke-width:1.0;fill:none;"/><text fill="#000000" font-family="sans-serif" font-size="11" lengthAdjust="spacing" textLength="76" x="27" y="219.1348">leader: Person</text><line style="stroke:#A80036;stroke-width:1.5;" x1="8" x2="136" y1="225.4551" y2="225.4551"/><ellipse cx="18" cy="236.4551" fill="#84BE84" rx="3" ry="3" style="stroke:#038048;stroke-width:1.0;"/><text fill="#000000" font-family="sans-serif" font-size="11" lengthAdjust="spacing" textLength="104" x="27" y="240.0898">share(Person): void</text><!--MD5=[4efc01bc0392e3a92338ca589a93e5a0]
class LunchGroup--><rect codeLine="13" fill="#FEFECE" filter="url(#fg2x28zoiqclp)" height="99.8203" id="LunchGroup" style="stroke:#A80036;stroke-width:1.5;" width="172" x="28" y="642.5"/><ellipse cx="75.25" cy="658.5" fill="#ADD1B2" rx="11" ry="11" style="stroke:#A80036;stroke-width:1.0;"/><path d="M77.7231,664.6431 Q77.1421,664.9419 76.5029,665.0913 Q75.8638,665.2407 75.1582,665.2407 Q72.6514,665.2407 71.3315,663.5889 Q70.0117,661.937 70.0117,658.8159 Q70.0117,655.6865 71.3315,654.0347 Q72.6514,652.3828 75.1582,652.3828 Q75.8638,652.3828 76.5112,652.5322 Q77.1587,652.6816 77.7231,652.9805 L77.7231,655.7031 Q77.0923,655.1221 76.4988,654.8523 Q75.9053,654.5825 75.2744,654.5825 Q73.9297,654.5825 73.2449,655.6492 Q72.5601,656.7158 72.5601,658.8159 Q72.5601,660.9077 73.2449,661.9744 Q73.9297,663.041 75.2744,663.041 Q75.9053,663.041 76.4988,662.7712 Q77.0923,662.5015 77.7231,661.9204 Z " fill="#000000"/><text fill="#000000" font-family="sans-serif" font-size="12" lengthAdjust="spacing" textLength="69" x="95.75" y="663.0352">LunchGroup</text><line style="stroke:#A80036;stroke-width:1.5;" x1="29" x2="199" y1="674.5" y2="674.5"/><ellipse cx="39" cy="685.5" rx="3" ry="3" style="stroke:#038048;stroke-width:1.0;fill:none;"/><text fill="#000000" font-family="sans-serif" font-size="11" lengthAdjust="spacing" textLength="141" x="48" y="689.1348">members: Array&lt;Person&gt;</text><ellipse cx="39" cy="698.4551" rx="3" ry="3" style="stroke:#038048;stroke-width:1.0;fill:none;"/><text fill="#000000" font-family="sans-serif" font-size="11" lengthAdjust="spacing" textLength="61" x="48" y="702.0898">team: Team</text><ellipse cx="39" cy="711.4102" rx="3" ry="3" style="stroke:#038048;stroke-width:1.0;fill:none;"/><text fill="#000000" font-family="sans-serif" font-size="11" lengthAdjust="spacing" textLength="127" x="48" y="715.0449">lunchEvent: LunchEvent</text><line style="stroke:#A80036;stroke-width:1.0;" x1="29" x2="199" y1="721.3652" y2="721.3652"/><ellipse cx="39" cy="732.3652" fill="#84BE84" rx="3" ry="3" style="stroke:#038048;stroke-width:1.0;"/><text fill="#000000" font-family="sans-serif" font-size="11" lengthAdjust="spacing" textLength="146" x="48" y="736">lunchEventLeader(): Person</text><!--MD5=[db6d18d8099558415abc41d00477ab92]
class Admin--><rect codeLine="21" fill="#FEFECE" filter="url(#fg2x28zoiqclp)" height="60.9551" id="Admin" style="stroke:#A80036;stroke-width:1.5;" width="93" x="866.5" y="13.5"/><ellipse cx="892.3" cy="29.5" fill="#ADD1B2" rx="11" ry="11" style="stroke:#A80036;stroke-width:1.0;"/><path d="M894.7731,35.6431 Q894.1921,35.9419 893.5529,36.0913 Q892.9138,36.2407 892.2082,36.2407 Q889.7014,36.2407 888.3815,34.5889 Q887.0617,32.937 887.0617,29.8159 Q887.0617,26.6865 888.3815,25.0347 Q889.7014,23.3828 892.2082,23.3828 Q892.9138,23.3828 893.5612,23.5322 Q894.2087,23.6816 894.7731,23.9805 L894.7731,26.7031 Q894.1423,26.1221 893.5488,25.8523 Q892.9553,25.5825 892.3244,25.5825 Q890.9797,25.5825 890.2949,26.6492 Q889.6101,27.7158 889.6101,29.8159 Q889.6101,31.9077 890.2949,32.9744 Q890.9797,34.041 892.3244,34.041 Q892.9553,34.041 893.5488,33.7712 Q894.1423,33.5015 894.7731,32.9204 Z " fill="#000000"/><text fill="#000000" font-family="sans-serif" font-size="12" lengthAdjust="spacing" textLength="37" x="908.7" y="34.0352">Admin</text><line style="stroke:#A80036;stroke-width:1.5;" x1="867.5" x2="958.5" y1="45.5" y2="45.5"/><text fill="#000000" font-family="sans-serif" font-size="11" lengthAdjust="spacing" textLength="81" x="872.5" y="60.1348">person: Person</text><line style="stroke:#A80036;stroke-width:1.5;" x1="867.5" x2="958.5" y1="66.4551" y2="66.4551"/><!--MD5=[09ce52be0ee7de43c61b6e2d59bf108b]
class Person--><rect codeLine="25" fill="#FEFECE" filter="url(#fg2x28zoiqclp)" height="73.9102" id="Person" style="stroke:#A80036;stroke-width:1.5;" width="123" x="211.5" y="172.5"/><ellipse cx="249.9" cy="188.5" fill="#ADD1B2" rx="11" ry="11" style="stroke:#A80036;stroke-width:1.0;"/><path d="M252.3731,194.6431 Q251.7921,194.9419 251.1529,195.0913 Q250.5138,195.2407 249.8082,195.2407 Q247.3014,195.2407 245.9815,193.5889 Q244.6617,191.937 244.6617,188.8159 Q244.6617,185.6865 245.9815,184.0347 Q247.3014,182.3828 249.8082,182.3828 Q250.5138,182.3828 251.1612,182.5322 Q251.8087,182.6816 252.3731,182.9805 L252.3731,185.7031 Q251.7423,185.1221 251.1488,184.8523 Q250.5553,184.5825 249.9244,184.5825 Q248.5797,184.5825 247.8949,185.6492 Q247.2101,186.7158 247.2101,188.8159 Q247.2101,190.9077 247.8949,191.9744 Q248.5797,193.041 249.9244,193.041 Q250.5553,193.041 251.1488,192.7712 Q251.7423,192.5015 252.3731,191.9204 Z " fill="#000000"/><text fill="#000000" font-family="sans-serif" font-size="12" lengthAdjust="spacing" textLength="39" x="269.1" y="193.0352">Person</text><line style="stroke:#A80036;stroke-width:1.5;" x1="212.5" x2="333.5" y1="204.5" y2="204.5"/><ellipse cx="222.5" cy="215.5" rx="3" ry="3" style="stroke:#038048;stroke-width:1.0;fill:none;"/><text fill="#000000" font-family="sans-serif" font-size="11" lengthAdjust="spacing" textLength="97" x="231.5" y="219.1348">createEvent: Event</text><ellipse cx="222.5" cy="228.4551" rx="3" ry="3" style="stroke:#038048;stroke-width:1.0;fill:none;"/><text fill="#000000" font-family="sans-serif" font-size="11" lengthAdjust="spacing" textLength="61" x="231.5" y="232.0898">team: Team</text><line style="stroke:#A80036;stroke-width:1.5;" x1="212.5" x2="333.5" y1="238.4102" y2="238.4102"/><!--MD5=[63a373d2559db13dd8cc7d36e037ebb1]
class Unit--><rect codeLine="30" fill="#FEFECE" filter="url(#fg2x28zoiqclp)" height="73.9102" id="Unit" style="stroke:#A80036;stroke-width:1.5;" width="167" x="994.5" y="7"/><ellipse cx="1062.75" cy="23" fill="#ADD1B2" rx="11" ry="11" style="stroke:#A80036;stroke-width:1.0;"/><path d="M1065.2231,29.1431 Q1064.6421,29.4419 1064.0029,29.5913 Q1063.3638,29.7407 1062.6582,29.7407 Q1060.1514,29.7407 1058.8315,28.0889 Q1057.5117,26.437 1057.5117,23.3159 Q1057.5117,20.1865 1058.8315,18.5347 Q1060.1514,16.8828 1062.6582,16.8828 Q1063.3638,16.8828 1064.0112,17.0322 Q1064.6587,17.1816 1065.2231,17.4805 L1065.2231,20.2031 Q1064.5923,19.6221 1063.9988,19.3523 Q1063.4053,19.0825 1062.7744,19.0825 Q1061.4297,19.0825 1060.7449,20.1492 Q1060.0601,21.2158 1060.0601,23.3159 Q1060.0601,25.4077 1060.7449,26.4744 Q1061.4297,27.541 1062.7744,27.541 Q1063.4053,27.541 1063.9988,27.2712 Q1064.5923,27.0015 1065.2231,26.4204 Z " fill="#000000"/><text fill="#000000" font-family="sans-serif" font-size="12" lengthAdjust="spacing" textLength="22" x="1083.25" y="27.5352">Unit</text><line style="stroke:#A80036;stroke-width:1.5;" x1="995.5" x2="1160.5" y1="39" y2="39"/><ellipse cx="1005.5" cy="50" rx="3" ry="3" style="stroke:#038048;stroke-width:1.0;fill:none;"/><text fill="#000000" font-family="sans-serif" font-size="11" lengthAdjust="spacing" textLength="141" x="1014.5" y="53.6348">members: Array&lt;Person&gt;</text><ellipse cx="1005.5" cy="62.9551" rx="3" ry="3" style="stroke:#038048;stroke-width:1.0;fill:none;"/><text fill="#000000" font-family="sans-serif" font-size="11" lengthAdjust="spacing" textLength="58" x="1014.5" y="66.5898">title: String</text><line style="stroke:#A80036;stroke-width:1.5;" x1="995.5" x2="1160.5" y1="72.9102" y2="72.9102"/><!--MD5=[c54b6ffcb510d46c6d5b6b5b6854a14d]
reverse link Team to LunchGroup--><path codeLine="35" d="M114,515.3 C114,553.27 114,604.87 114,642.41 " fill="none" id="Team-backto-LunchGroup" style="stroke:#A80036;stroke-width:1.0;"/><polygon fill="#A80036" points="114,502.49,110.0066,508.4944,114.0132,514.49,118.0066,508.4856,114,502.49" style="stroke:#A80036;stroke-width:1.0;"/><text fill="#000000" font-family="sans-serif" font-size="13" lengthAdjust="spacing" textLength="44" x="115" y="609.0684">groups</text><text fill="#000000" font-family="sans-serif" font-size="13" lengthAdjust="spacing" textLength="8" x="105.3375" y="521.0197">1</text><text fill="#000000" font-family="sans-serif" font-size="13" lengthAdjust="spacing" textLength="22" x="90.4531" y="631.9142">0..*</text><!--MD5=[414c00fbbe0f37c545199bf08df9ab40]
reverse link Person to Team--><path codeLine="36" d="M242.39,259.02 C211.56,307.87 164.71,382.13 136.94,426.14 " fill="none" id="Person-backto-Team" style="stroke:#A80036;stroke-width:1.0;"/><polygon fill="#A80036" points="249.24,248.15,242.6532,251.085,242.8291,258.294,249.4159,255.359,249.24,248.15" style="stroke:#A80036;stroke-width:1.0;"/><text fill="#000000" font-family="sans-serif" font-size="13" lengthAdjust="spacing" textLength="31" x="232" y="290.0684">team</text><text fill="#000000" font-family="sans-serif" font-size="13" lengthAdjust="spacing" textLength="8" x="237.5864" y="266.9031">1</text><text fill="#000000" font-family="sans-serif" font-size="13" lengthAdjust="spacing" textLength="22" x="117.0668" y="415.7533">0..*</text><!--MD5=[fddfaae247def1df52a2c175c83d6937]
reverse link LunchEvent to Person--><path codeLine="37" d="M151.75,209.5 C171.51,209.5 192.38,209.5 211.14,209.5 " fill="none" id="LunchEvent-backto-Person" style="stroke:#A80036;stroke-width:1.0;"/><polygon fill="#A80036" points="138.77,209.5,144.77,213.5,150.77,209.5,144.77,205.5,138.77,209.5" style="stroke:#A80036;stroke-width:1.0;"/><text fill="#000000" font-family="sans-serif" font-size="13" lengthAdjust="spacing" textLength="38" x="155.25" y="203.0684">leader</text><text fill="#000000" font-family="sans-serif" font-size="13" lengthAdjust="spacing" textLength="8" x="144.8353" y="206.2699">1</text><text fill="#000000" font-family="sans-serif" font-size="13" lengthAdjust="spacing" textLength="8" x="195.5249" y="206.2243">1</text><!--MD5=[9a1e03d3b6b099ffdf9900f7715fec0a]
link LunchEvent to CreateLunchEvent--><path codeLine="88" d="M137.34,242.8 C155.36,250.69 175.14,258.45 194,264 C260.34,283.51 287.3,263.39 345,301.5 C379.52,324.31 411.15,357.24 436,387.39 " fill="none" id="LunchEvent-CreateLunchEvent" style="stroke:#A80036;stroke-width:1.0;stroke-dasharray:7.0,7.0;"/><text fill="#000000" font-family="sans-serif" font-size="13" lengthAdjust="spacing" textLength="72" x="333" y="290.0684">createEvent</text><!--MD5=[2830d07161b57c3df2ca15d26d5b6a1d]
link Person to JoinJSON--><path codeLine="90" d="M273,246.87 C273,297.12 273,386.8 273,433.08 " fill="none" id="Person-to-JoinJSON" style="stroke:#A80036;stroke-width:1.0;"/><polygon fill="#A80036" points="273,437.8,277,428.8,273,432.8,269,428.8,273,437.8" style="stroke:#A80036;stroke-width:1.0;"/><!--MD5=[0c56e88bb373e50415a0ec5087a7d991]
link joinJSON to JoinLunchEvent--><path codeLine="91" d="M1143.46,228.62 C1153.65,270.03 1178.78,372.17 1192.21,426.75 " fill="none" id="joinJSON-to-JoinLunchEvent" style="stroke:#A80036;stroke-width:1.0;"/><polygon fill="#A80036" points="1193.34,431.38,1195.0646,421.6833,1192.1408,426.5259,1187.2981,423.6021,1193.34,431.38" style="stroke:#A80036;stroke-width:1.0;"/><!--MD5=[96bdb5e461b99242cc577ec810c1b1a9]
link Admin to createJSON--><path codeLine="93" d="M896.53,74.81 C890.34,86.11 883.29,99.12 877,111 C866.2,131.42 854.39,154.41 844.97,172.93 " fill="none" id="Admin-to-createJSON" style="stroke:#A80036;stroke-width:1.0;"/><polygon fill="#A80036" points="842.81,177.18,850.4446,170.958,845.0689,172.7194,843.3075,167.3437,842.81,177.18" style="stroke:#A80036;stroke-width:1.0;"/><text fill="#000000" font-family="sans-serif" font-size="13" font-weight="bold" lengthAdjust="spacing" textLength="60" x="878" y="124.5684">first step</text><!--MD5=[e07e83ab3ca7bd082fcee5a0978e2b0a]
link createJSON to CreateLunchEvent--><path codeLine="94" d="M755.96,240.43 C722.1,256.26 681.9,277.4 649,301.5 C616.96,324.96 585.43,355 559,382.77 " fill="none" id="createJSON-to-CreateLunchEvent" style="stroke:#A80036;stroke-width:1.0;"/><polygon fill="#A80036" points="555.85,386.1,564.9311,382.2877,559.2768,382.459,559.1055,376.8047,555.85,386.1" style="stroke:#A80036;stroke-width:1.0;"/><text fill="#000000" font-family="sans-serif" font-size="13" font-weight="bold" lengthAdjust="spacing" textLength="118" x="687" y="290.0684">create new friday</text><!--MD5=[2e7cd5654227a0359e02f056ca525959]
link Admin to shareJSON--><path codeLine="95" d="M928.96,74.99 C944.59,104.37 968.3,148.92 983.96,178.36 " fill="none" id="Admin-to-shareJSON" style="stroke:#A80036;stroke-width:1.0;"/><polygon fill="#A80036" points="986.27,182.7,985.5592,172.8768,983.9148,178.2894,978.5022,176.6451,986.27,182.7" style="stroke:#A80036;stroke-width:1.0;"/><text fill="#000000" font-family="sans-serif" font-size="13" font-weight="bold" lengthAdjust="spacing" textLength="116" x="957" y="124.5684">notify employees</text><!--MD5=[0e0db7ba3c15bbab427648782062e702]
link shareJSON to ShareLunchEvent--><path codeLine="96" d="M1000,234.66 C1000,277.4 1000,366.81 1000,420.04 " fill="none" id="shareJSON-to-ShareLunchEvent" style="stroke:#A80036;stroke-width:1.0;"/><polygon fill="#A80036" points="1000,424.83,1004,415.83,1000,419.83,996,415.83,1000,424.83" style="stroke:#A80036;stroke-width:1.0;"/><text fill="#000000" font-family="sans-serif" font-size="13" font-weight="bold" lengthAdjust="spacing" textLength="54" x="1001" y="290.0684">payload</text><!--MD5=[ded7bd9059d742f6359f7a6ca5e2677a]
@startuml

class Team {
  +event: LunchEvent
  +members: Array<Person>
}

class LunchEvent {
  +leader: Person
  +share(Person): void

}

class LunchGroup {
  +members: Array<Person>
  +team: Team
  +lunchEvent: LunchEvent
  - - -
  +lunchEventLeader(): Person
}

class Admin {
  person: Person
}

class Person {
  +createEvent: Event
  +team: Team
}

class Unit  {
  +members: Array<Person>
  +title: String
}

Team "1" *- - "0..*" LunchGroup : groups
Person "1" *- - "0..*" Team : team
LunchEvent "1" *-r- "1" Person : leader

package Contracts {
  object createJSON {
    leader:Person,
    participants:Array<Person>,
    restaurant:Restaurant
  }
  object shareJSON {
    person: Person
    lunchEvent: LunchEvent
  }

  object joinJSON {
    person: Person
  }
}


package EventsAPI {
  package AdminAPI {
    class FridayLunch {
      +createEvent(createJSON): LunchEvent
      +open(): void
    }

    class CreateLunchEvent {
      +payload *-> JSON
      -validateGroupLeader(): Boolean
      -validateGroupParticipantGroupSize(): Boolean
      -validateGroupParticipantUnitOrigin(): Boolean
      -validateGroupParticipantEventHistory(): Boolean
      -validateGroupSize(): Boolean
      - - -
      +groups(): LunchGroup
      +create(): LunchEvent
    }

    class ShareLunchEvent {
      +payload *-> shareJSON
      +notifyPeers(): void
    }
  }

  package PersonAPI {
    class JoinLunchEvent {
      +payload *-> joinJSON
    }

  }

  LunchEvent .. CreateLunchEvent : createEvent

  Person - -> JoinJSON
  joinJSON - -> JoinLunchEvent

  Admin - -> createJSON : **first step**
  createJSON  - -> CreateLunchEvent : **create new friday**
  Admin - -> shareJSON : **notify employees**
  shareJSON-> ShareLunchEvent : **payload**
}

@enduml

PlantUML version 1.2021.9(Sun Jul 25 13:13:56 TRT 2021)
(GPL source distribution)
Java Runtime: OpenJDK Runtime Environment
JVM: OpenJDK 64-Bit Server VM
Default Encoding: UTF-8
Language: en
Country: DE
--></g></svg>