<?xml version="1.0" encoding="UTF-8" standalone="no"?><svg xmlns="http://www.w3.org/2000/svg" xmlns:xlink="http://www.w3.org/1999/xlink" contentScriptType="application/ecmascript" contentStyleType="text/css" height="511px" preserveAspectRatio="none" style="width:691px;height:511px;background:#FFFFFF;" version="1.1" viewBox="0 0 691 511" width="691px" zoomAndPan="magnify"><defs><filter height="300%" id="f5quvfwdhpgwb" width="300%" x="-1" y="-1"><feGaussianBlur result="blurOut" stdDeviation="2.0"/><feColorMatrix in="blurOut" result="blurOut2" type="matrix" values="0 0 0 0 0 0 0 0 0 0 0 0 0 0 0 0 0 0 .4 0"/><feOffset dx="4.0" dy="4.0" in="blurOut2" result="blurOut3"/><feBlend in="SourceGraphic" in2="blurOut3" mode="normal"/></filter></defs><g><rect fill="#FFFFFF" filter="url(#f5quvfwdhpgwb)" height="21.3105" style="stroke:#A80036;stroke-width:1.0;" width="10" x="25.5" y="98.4883"/><rect fill="#FFFFFF" filter="url(#f5quvfwdhpgwb)" height="30" style="stroke:#A80036;stroke-width:1.0;" width="10" x="25.5" y="149.1094"/><rect fill="#FFFFFF" filter="url(#f5quvfwdhpgwb)" height="53" style="stroke:#A80036;stroke-width:1.0;" width="10" x="25.5" y="365.3066"/><rect fill="#FFFFFF" filter="url(#f5quvfwdhpgwb)" height="155.2422" style="stroke:#FFFFFF;stroke-width:1.0;" width="10" x="109.5" y="119.7988"/><line style="stroke:#A80036;stroke-width:1.0;" x1="109.5" x2="109.5" y1="119.7988" y2="275.041"/><line style="stroke:#A80036;stroke-width:1.0;" x1="119.5" x2="119.5" y1="119.7988" y2="275.041"/><line style="stroke:#A80036;stroke-width:1.0;" x1="109.5" x2="119.5" y1="119.7988" y2="119.7988"/><rect fill="#FFFFFF" filter="url(#f5quvfwdhpgwb)" height="79.3105" style="stroke:#FFFFFF;stroke-width:1.0;" width="10" x="109.5" y="315.9961"/><line style="stroke:#A80036;stroke-width:1.0;" x1="109.5" x2="109.5" y1="315.9961" y2="395.3066"/><line style="stroke:#A80036;stroke-width:1.0;" x1="119.5" x2="119.5" y1="315.9961" y2="395.3066"/><line style="stroke:#A80036;stroke-width:1.0;" x1="109.5" x2="119.5" y1="395.3066" y2="395.3066"/><rect fill="#FFFFFF" filter="url(#f5quvfwdhpgwb)" height="58.6211" style="stroke:#A80036;stroke-width:1.0;" width="10" x="335.5" y="208.4199"/><rect fill="#FFFFFF" filter="url(#f5quvfwdhpgwb)" height="44" style="stroke:#A80036;stroke-width:1.0;" width="10" x="335.5" y="365.3066"/><line style="stroke:#A80036;stroke-width:1.0;" x1="30" x2="30" y1="88.4883" y2="275.041"/><line style="stroke:#A80036;stroke-width:1.0;stroke-dasharray:1.0,4.0;" x1="30" x2="30" y1="275.041" y2="315.9961"/><line style="stroke:#A80036;stroke-width:1.0;" x1="30" x2="30" y1="315.9961" y2="427.3066"/><line style="stroke:#A80036;stroke-width:1.0;" x1="114" x2="114" y1="88.4883" y2="275.041"/><line style="stroke:#A80036;stroke-width:1.0;stroke-dasharray:1.0,4.0;" x1="114" x2="114" y1="275.041" y2="315.9961"/><line style="stroke:#A80036;stroke-width:1.0;" x1="114" x2="114" y1="315.9961" y2="427.3066"/><line style="stroke:#A80036;stroke-width:1.0;" x1="238" x2="238" y1="88.4883" y2="275.041"/><line style="stroke:#A80036;stroke-width:1.0;stroke-dasharray:1.0,4.0;" x1="238" x2="238" y1="275.041" y2="315.9961"/><line style="stroke:#A80036;stroke-width:1.0;" x1="238" x2="238" y1="315.9961" y2="427.3066"/><line style="stroke:#A80036;stroke-width:1.0;" x1="340" x2="340" y1="88.4883" y2="275.041"/><line style="stroke:#A80036;stroke-width:1.0;stroke-dasharray:1.0,4.0;" x1="340" x2="340" y1="275.041" y2="315.9961"/><line style="stroke:#A80036;stroke-width:1.0;" x1="340" x2="340" y1="315.9961" y2="427.3066"/><line style="stroke:#A80036;stroke-width:1.0;" x1="467" x2="467" y1="88.4883" y2="275.041"/><line style="stroke:#A80036;stroke-width:1.0;stroke-dasharray:1.0,4.0;" x1="467" x2="467" y1="275.041" y2="315.9961"/><line style="stroke:#A80036;stroke-width:1.0;" x1="467" x2="467" y1="315.9961" y2="427.3066"/><line style="stroke:#A80036;stroke-width:1.0;" x1="623" x2="623" y1="88.4883" y2="275.041"/><line style="stroke:#A80036;stroke-width:1.0;stroke-dasharray:1.0,4.0;" x1="623" x2="623" y1="275.041" y2="315.9961"/><line style="stroke:#A80036;stroke-width:1.0;" x1="623" x2="623" y1="315.9961" y2="427.3066"/><text fill="#000000" font-family="sans-serif" font-size="14" lengthAdjust="spacing" textLength="45" x="5" y="85.5352">Admin</text><ellipse cx="30.5" cy="15" fill="#FEFECE" filter="url(#f5quvfwdhpgwb)" rx="8" ry="8" style="stroke:#A80036;stroke-width:2.0;"/><path d="M30.5,23 L30.5,50 M17.5,31 L43.5,31 M30.5,50 L17.5,65 M30.5,50 L43.5,65 " fill="none" filter="url(#f5quvfwdhpgwb)" style="stroke:#A80036;stroke-width:2.0;"/><text fill="#000000" font-family="sans-serif" font-size="14" lengthAdjust="spacing" textLength="45" x="5" y="439.8418">Admin</text><ellipse cx="30.5" cy="452.7949" fill="#FEFECE" filter="url(#f5quvfwdhpgwb)" rx="8" ry="8" style="stroke:#A80036;stroke-width:2.0;"/><path d="M30.5,460.7949 L30.5,487.7949 M17.5,468.7949 L43.5,468.7949 M30.5,487.7949 L17.5,502.7949 M30.5,487.7949 L43.5,502.7949 " fill="none" filter="url(#f5quvfwdhpgwb)" style="stroke:#A80036;stroke-width:2.0;"/><rect fill="#FEFECE" filter="url(#f5quvfwdhpgwb)" height="30.4883" style="stroke:#A80036;stroke-width:1.5;" width="93" x="66" y="53"/><text fill="#000000" font-family="sans-serif" font-size="14" lengthAdjust="spacing" textLength="79" x="73" y="73.5352">FridayEvent</text><rect fill="#FEFECE" filter="url(#f5quvfwdhpgwb)" height="30.4883" style="stroke:#A80036;stroke-width:1.5;" width="93" x="66" y="426.3066"/><text fill="#000000" font-family="sans-serif" font-size="14" lengthAdjust="spacing" textLength="79" x="73" y="446.8418">FridayEvent</text><rect fill="#FEFECE" filter="url(#f5quvfwdhpgwb)" height="30.4883" style="stroke:#A80036;stroke-width:1.5;" width="127" x="173" y="53"/><text fill="#000000" font-family="sans-serif" font-size="14" lengthAdjust="spacing" textLength="113" x="180" y="73.5352">NotifyEmployees</text><rect fill="#FEFECE" filter="url(#f5quvfwdhpgwb)" height="30.4883" style="stroke:#A80036;stroke-width:1.5;" width="127" x="173" y="426.3066"/><text fill="#000000" font-family="sans-serif" font-size="14" lengthAdjust="spacing" textLength="113" x="180" y="446.8418">NotifyEmployees</text><text fill="#000000" font-family="sans-serif" font-size="14" lengthAdjust="spacing" textLength="47" x="314" y="85.5352">Person</text><ellipse cx="340.5" cy="15" fill="#FEFECE" filter="url(#f5quvfwdhpgwb)" rx="8" ry="8" style="stroke:#A80036;stroke-width:2.0;"/><path d="M340.5,23 L340.5,50 M327.5,31 L353.5,31 M340.5,50 L327.5,65 M340.5,50 L353.5,65 " fill="none" filter="url(#f5quvfwdhpgwb)" style="stroke:#A80036;stroke-width:2.0;"/><text fill="#000000" font-family="sans-serif" font-size="14" lengthAdjust="spacing" textLength="47" x="314" y="439.8418">Person</text><ellipse cx="340.5" cy="452.7949" fill="#FEFECE" filter="url(#f5quvfwdhpgwb)" rx="8" ry="8" style="stroke:#A80036;stroke-width:2.0;"/><path d="M340.5,460.7949 L340.5,487.7949 M327.5,468.7949 L353.5,468.7949 M340.5,487.7949 L327.5,502.7949 M340.5,487.7949 L353.5,502.7949 " fill="none" filter="url(#f5quvfwdhpgwb)" style="stroke:#A80036;stroke-width:2.0;"/><rect fill="#FEFECE" filter="url(#f5quvfwdhpgwb)" height="30.4883" style="stroke:#A80036;stroke-width:1.5;" width="177" x="377" y="53"/><text fill="#000000" font-family="sans-serif" font-size="14" lengthAdjust="spacing" textLength="163" x="384" y="73.5352">BuildFridayEventGroups</text><rect fill="#FEFECE" filter="url(#f5quvfwdhpgwb)" height="30.4883" style="stroke:#A80036;stroke-width:1.5;" width="177" x="377" y="426.3066"/><text fill="#000000" font-family="sans-serif" font-size="14" lengthAdjust="spacing" textLength="163" x="384" y="446.8418">BuildFridayEventGroups</text><rect fill="#FEFECE" filter="url(#f5quvfwdhpgwb)" height="30.4883" style="stroke:#A80036;stroke-width:1.5;" width="107" x="568" y="53"/><text fill="#000000" font-family="sans-serif" font-size="14" lengthAdjust="spacing" textLength="93" x="575" y="73.5352">GetGroupInfo</text><rect fill="#FEFECE" filter="url(#f5quvfwdhpgwb)" height="30.4883" style="stroke:#A80036;stroke-width:1.5;" width="107" x="568" y="426.3066"/><text fill="#000000" font-family="sans-serif" font-size="14" lengthAdjust="spacing" textLength="93" x="575" y="446.8418">GetGroupInfo</text><rect fill="#FFFFFF" filter="url(#f5quvfwdhpgwb)" height="21.3105" style="stroke:#A80036;stroke-width:1.0;" width="10" x="25.5" y="98.4883"/><rect fill="#FFFFFF" filter="url(#f5quvfwdhpgwb)" height="30" style="stroke:#A80036;stroke-width:1.0;" width="10" x="25.5" y="149.1094"/><rect fill="#FFFFFF" filter="url(#f5quvfwdhpgwb)" height="53" style="stroke:#A80036;stroke-width:1.0;" width="10" x="25.5" y="365.3066"/><rect fill="#FFFFFF" filter="url(#f5quvfwdhpgwb)" height="155.2422" style="stroke:#FFFFFF;stroke-width:1.0;" width="10" x="109.5" y="119.7988"/><line style="stroke:#A80036;stroke-width:1.0;" x1="109.5" x2="109.5" y1="119.7988" y2="275.041"/><line style="stroke:#A80036;stroke-width:1.0;" x1="119.5" x2="119.5" y1="119.7988" y2="275.041"/><line style="stroke:#A80036;stroke-width:1.0;" x1="109.5" x2="119.5" y1="119.7988" y2="119.7988"/><rect fill="#FFFFFF" filter="url(#f5quvfwdhpgwb)" height="79.3105" style="stroke:#FFFFFF;stroke-width:1.0;" width="10" x="109.5" y="315.9961"/><line style="stroke:#A80036;stroke-width:1.0;" x1="109.5" x2="109.5" y1="315.9961" y2="395.3066"/><line style="stroke:#A80036;stroke-width:1.0;" x1="119.5" x2="119.5" y1="315.9961" y2="395.3066"/><line style="stroke:#A80036;stroke-width:1.0;" x1="109.5" x2="119.5" y1="395.3066" y2="395.3066"/><rect fill="#FFFFFF" filter="url(#f5quvfwdhpgwb)" height="58.6211" style="stroke:#A80036;stroke-width:1.0;" width="10" x="335.5" y="208.4199"/><rect fill="#FFFFFF" filter="url(#f5quvfwdhpgwb)" height="44" style="stroke:#A80036;stroke-width:1.0;" width="10" x="335.5" y="365.3066"/><polygon fill="#A80036" points="97.5,115.7988,107.5,119.7988,97.5,123.7988,101.5,119.7988" style="stroke:#A80036;stroke-width:1.0;"/><line style="stroke:#A80036;stroke-width:1.0;stroke-dasharray:2.0,2.0;" x1="30.5" x2="103.5" y1="119.7988" y2="119.7988"/><text fill="#000000" font-family="sans-serif" font-size="13" lengthAdjust="spacing" textLength="38" x="37.5" y="115.0566">create</text><polygon fill="#A80036" points="226.5,145.1094,236.5,149.1094,226.5,153.1094,230.5,149.1094" style="stroke:#A80036;stroke-width:1.0;"/><line style="stroke:#A80036;stroke-width:1.0;stroke-dasharray:2.0,2.0;" x1="35.5" x2="232.5" y1="149.1094" y2="149.1094"/><text fill="#000000" font-family="sans-serif" font-size="13" lengthAdjust="spacing" textLength="29" x="42.5" y="144.3672">start</text><polygon fill="#A80036" points="323.5,204.4199,333.5,208.4199,323.5,212.4199,327.5,208.4199" style="stroke:#A80036;stroke-width:1.0;"/><line style="stroke:#A80036;stroke-width:1.0;stroke-dasharray:2.0,2.0;" x1="238.5" x2="329.5" y1="208.4199" y2="208.4199"/><text fill="#000000" font-family="sans-serif" font-size="13" lengthAdjust="spacing" textLength="73" x="245.5" y="203.6777">notification</text><polygon fill="#A80036" points="130.5,233.7305,120.5,237.7305,130.5,241.7305,126.5,237.7305" style="stroke:#A80036;stroke-width:1.0;"/><line style="stroke:#A80036;stroke-width:1.0;stroke-dasharray:2.0,2.0;" x1="124.5" x2="334.5" y1="237.7305" y2="237.7305"/><text fill="#000000" font-family="sans-serif" font-size="13" lengthAdjust="spacing" textLength="24" x="136.5" y="232.9883">join</text><polygon fill="#A80036" points="130.5,263.041,120.5,267.041,130.5,271.041,126.5,267.041" style="stroke:#A80036;stroke-width:1.0;"/><line style="stroke:#A80036;stroke-width:1.0;stroke-dasharray:2.0,2.0;" x1="124.5" x2="339.5" y1="267.041" y2="267.041"/><text fill="#000000" font-family="sans-serif" font-size="13" lengthAdjust="spacing" textLength="24" x="136.5" y="262.2988">join</text><text fill="#000000" font-family="sans-serif" font-size="11" lengthAdjust="spacing" textLength="109" x="272.5" y="299.6758">wait for each person</text><rect fill="#EEEEEE" filter="url(#f5quvfwdhpgwb)" height="3" style="stroke:#EEEEEE;stroke-width:1.0;" width="684" x="0" y="336.6514"/><line style="stroke:#000000;stroke-width:1.0;" x1="0" x2="684" y1="336.6514" y2="336.6514"/><line style="stroke:#000000;stroke-width:1.0;" x1="0" x2="684" y1="339.6514" y2="339.6514"/><rect fill="#EEEEEE" filter="url(#f5quvfwdhpgwb)" height="23.3105" style="stroke:#000000;stroke-width:2.0;" width="222" x="231" y="325.9961"/><text fill="#000000" font-family="sans-serif" font-size="13" font-weight="bold" lengthAdjust="spacing" textLength="204" x="237" y="342.5645">Now Admin can create groups</text><polygon fill="#A80036" points="455.5,361.3066,465.5,365.3066,455.5,369.3066,459.5,365.3066" style="stroke:#A80036;stroke-width:1.0;"/><line style="stroke:#A80036;stroke-width:1.0;stroke-dasharray:2.0,2.0;" x1="35.5" x2="461.5" y1="365.3066" y2="365.3066"/><polygon fill="#A80036" points="611.5,405.3066,621.5,409.3066,611.5,413.3066,615.5,409.3066" style="stroke:#A80036;stroke-width:1.0;"/><line style="stroke:#A80036;stroke-width:1.0;stroke-dasharray:2.0,2.0;" x1="340.5" x2="617.5" y1="409.3066" y2="409.3066"/><!--MD5=[97a162e1facc329c05ac8316d9797983]
@startuml
actor Admin

activate Admin
Admin - -> FridayEvent : create
deactivate Admin
activate FridayEvent

Admin - -> NotifyEmployees : start
activate Admin
deactivate Admin

actor Person
NotifyEmployees - -> Person :  notification
activate Person
Person - -> FridayEvent : join
Person - -> FridayEvent : join
deactivate Person

... wait for each person ...

== Now Admin can create groups ==

Admin - -> BuildFridayEventGroups
activate Admin
deactivate FridayEvent

activate Person
Person - -> GetGroupInfo
deactivate Person

@enduml

PlantUML version 1.2021.9(Sun Jul 25 13:13:56 TRT 2021)
(GPL source distribution)
Java Runtime: OpenJDK Runtime Environment
JVM: OpenJDK 64-Bit Server VM
Default Encoding: UTF-8
Language: en
Country: DE
--></g></svg>